<svg xmlns="http://www.w3.org/2000/svg" viewBox="0 0 1454 310"><defs><style>.cls-1{fill:#fff;}.cls-2{fill:#f47721;}.cls-3{fill:#02002d;}</style></defs><g id="Layer_2" data-name="Layer 2"><g id="Layer_1-2" data-name="Layer 1"><path class="cls-1" d="M1345.31,52.72v9.67H1350V52.72h-4.71Z"/><path class="cls-1" d="M1364.15,47.88H1350v4.84h14.13V47.88Z"/><path class="cls-1" d="M1364.15,52.72V72.06h4.71V52.72h-4.71Z"/><path class="cls-1" d="M1364.15,81.74V96.25h4.71V76.9h-4.71v4.84Z"/><path class="cls-1" d="M1359.44,96.25H1350v4.84h14.13V96.25h-4.71Z"/><path class="cls-1" d="M1350,91.41V86.57h-4.71v9.68H1350V91.41Z"/><path class="cls-1" d="M1359.44,72.06H1350V76.9h14.13V72.06h-4.71Z"/><path class="cls-1" d="M1392.53,47.88H1378.4v4.84h14.13V47.88Z"/><path class="cls-1" d="M1392.53,52.72V72.06h4.71V52.72h-4.71Z"/><path class="cls-1" d="M1373.69,52.72v9.67h4.71V52.72h-4.71Z"/><path class="cls-1" d="M1378.4,91.41V86.57h-4.71v9.68h4.71V91.41Z"/><path class="cls-1" d="M1387.82,72.06h-9.42V76.9h14.13V72.06h-4.71Z"/><path class="cls-1" d="M1387.82,96.25h-9.42v4.84h14.13V96.25h-4.71Z"/><path class="cls-1" d="M1392.53,81.74V96.25h4.71V76.9h-4.71v4.84Z"/><path class="cls-1" d="M1416.2,72.06h-9.42V76.9h14.13V72.06h-4.71Z"/><path class="cls-1" d="M1420.91,52.72V72.06h4.71V52.72h-4.71Z"/><path class="cls-1" d="M1406.78,91.41V86.57h-4.71v9.68h4.71V91.41Z"/><path class="cls-1" d="M1420.91,47.88h-14.13v4.84h14.13V47.88Z"/><path class="cls-1" d="M1420.91,81.74V96.25h4.71V76.9h-4.71v4.84Z"/><path class="cls-1" d="M1402.07,52.72v9.67h4.71V52.72h-4.71Z"/><path class="cls-1" d="M1416.2,96.25h-9.42v4.84h14.13V96.25h-4.71Z"/><path class="cls-1" d="M1451.65,47.88h-21.2v29h4.71V74.48h4.71V72.06h9.42V67.23h-9.42v2.42h-4.71V52.72H1454V47.88Z"/><path class="cls-1" d="M1449.29,76.9V96.25H1454V72.06h-4.71V76.9Z"/><path class="cls-1" d="M1435.16,91.41V86.57h-4.71v9.68h4.71V91.41Z"/><path class="cls-1" d="M1444.58,96.25h-9.42v4.84h14.13V96.25h-4.71Z"/><path class="cls-1" d="M374.27,218.71V164.1H351v72.82h23.27V218.71Z"/><path class="cls-1" d="M397.54,236.92H374.27v18.2h46.54v-18.2H397.54Z"/><path class="cls-1" d="M420.81,54.88H351v18.2h69.81V236.92h23.27v-182H420.81Z"/><path class="cls-1" d="M587.57,100.39v-9.1H575.94V73.08H564.3V54.88H517.76v18.2H506.13V91.29H494.49v18.2H482.86V255.12h23.27V200.51h69.81v54.61h23.27V109.49H587.57Zm-11.63,18.2v63.72H506.13V109.49h11.63V91.29H529.4V73.08h23.27V91.29H564.3v18.2h11.64Z"/><path class="cls-1" d="M742.7,54.88v18.2H731.07V91.29H719.43v18.2H707.8V127.7H696.16v18.2h-34.9v-91H638V255.12h23.27v-91h34.9v18.21H707.8v18.2h11.63v18.2h11.64v18.21H742.7v18.2H766v-18.2H754.34V218.71H742.7v-18.2H731.07v-18.2H719.43V164.1H707.8V145.9h11.63V127.7h11.64V109.49H742.7V91.29h11.64V73.08H766V54.88H742.7Z"/><path class="cls-1" d="M909.46,100.39v-9.1H897.83V73.08H886.19V54.88H839.65v18.2H828V91.29H816.38v18.2H804.75V255.12H828V200.51h69.81v54.61H921.1V109.49H909.46Zm-11.63,18.2v63.72H828V109.49h11.63V91.29h11.64V73.08h23.27V91.29h11.63v18.2h11.64Z"/><path class="cls-1" d="M1029.69,164.1H983.15v-91H1053V54.88H959.88V255.12h23.27V182.31h34.9v18.2h11.64v18.2h11.63v18.21H1053v18.2h23.27v-18.2h-11.64V218.71H1053v-18.2h-11.64v-18.2H1053V164.1h-23.27Z"/><path class="cls-1" d="M1053,73.08v91h23.27v-91H1053Z"/><path class="cls-1" d="M1161.54,54.88H1115v18.2h23.27V236.92H1115v18.2h69.8v-18.2h-23.27V73.08h23.27V54.88h-23.27Z"/><path class="cls-1" d="M1328.31,109.49V91.29h-11.64V73.08H1305V54.88H1258.5v18.2h-11.64V91.29h-11.63v18.2h-11.64V255.12h23.27V200.51h69.81v54.61h23.27V109.49ZM1305,182.31h-58.18V109.49h11.64V91.29h11.63V73.08h23.27V91.29H1305v18.2h11.63v72.82Z"/><path class="cls-2" d="M79.08,166.3H37.83v90.17A155.07,155.07,0,0,1,21.24,76.64h93.94V247.81H79.08Z"/><path class="cls-2" d="M263.22,266A155,155,0,0,1,63.9,280.41h66.75V260h25.78V44H46.78A155,155,0,0,1,264,44.79H222.13V63.86H210.07V82.92H198V102H185.94v19.07H173.87V189.7h12.07v19.06H198v19.07h12.07V246.9h10.48V266Z"/><path class="cls-2" d="M310,155a154.29,154.29,0,0,1-22.49,80.46H248.66V216.39H236.6V197.33H224.54V178.26H212.48V159.2H200.42v-7.63h12.06V132.5h12.06V113.44H236.6V94.37h12.06V75.3H288A154.29,154.29,0,0,1,310,155Z"/><path class="cls-1" d="M115.18,76.64V247.81H79.08V166.3H37.83v42.84A129.2,129.2,0,0,1,52.47,76.64Z"/><path class="cls-1" d="M222.17,44.79h0V63.86H210.07V82.92H198V102H185.94v19.07H173.87V189.7h12.07v19.06H198v19.07h12.07V246.9h10.48V266h.36a129.48,129.48,0,0,1-96.42,14.44h6.16V260h25.78V44H89.1a129.21,129.21,0,0,1,133.07.76Z"/><path class="cls-1" d="M284,155a128.48,128.48,0,0,1-28.15,80.46h-7.23V216.39H236.6V197.33H224.54V178.26H212.48V159.2H200.42v-7.63h12.06V132.5h12.06V113.44H236.6V94.37h12.06V75.3h7.84A128.51,128.51,0,0,1,284,155Z"/><path class="cls-3" d="M226.57,146.1v4h2v-4h-2Z"/><path class="cls-3" d="M234.48,144.12h-5.93v2h5.93v-2Z"/><path class="cls-3" d="M234.48,146.1V154h2V146.1h-2Z"/><path class="cls-3" d="M234.48,158v5.93h2V156h-2v2Z"/><path class="cls-3" d="M232.5,163.9h-3.95v2h5.93v-2h-2Z"/><path class="cls-3" d="M228.55,161.92v-2h-2v4h2v-2Z"/><path class="cls-3" d="M232.5,154h-3.95v2h5.93v-2h-2Z"/><path class="cls-3" d="M248.32,144.12h-5.93v2h5.93v-2Z"/><path class="cls-3" d="M248.32,146.1V154h2V146.1h-2Z"/><path class="cls-3" d="M240.41,146.1v4h2v-4h-2Z"/><path class="cls-3" d="M242.39,161.92v-2h-2v4h2v-2Z"/><path class="cls-3" d="M246.35,154h-4v2h5.93v-2h-2Z"/><path class="cls-3" d="M246.35,163.9h-4v2h5.93v-2h-2Z"/><path class="cls-3" d="M248.32,158v5.93h2V156h-2v2Z"/><path class="cls-3" d="M260.19,154h-4v2h5.94v-2h-2Z"/><path class="cls-3" d="M262.17,146.1V154h2V146.1h-2Z"/><path class="cls-3" d="M256.23,161.92v-2h-2v4h2v-2Z"/><path class="cls-3" d="M262.17,144.12h-5.94v2h5.94v-2Z"/><path class="cls-3" d="M262.17,158v5.93h2V156h-2v2Z"/><path class="cls-3" d="M254.26,146.1v4h2v-4h-2Z"/><path class="cls-3" d="M260.19,163.9h-4v2h5.94v-2h-2Z"/><path class="cls-3" d="M277,144.12h-8.9V156h2v-1h2v-1h4v-2h-4v1h-2V146.1H278v-2Z"/><path class="cls-3" d="M276,156v7.91h2V154h-2v2Z"/><path class="cls-3" d="M270.08,161.92v-2h-2v4h2v-2Z"/><path class="cls-3" d="M274,163.9h-3.95v2H276v-2h-2Z"/></g></g></svg>