<svg xmlns="http://www.w3.org/2000/svg" viewBox="0 0 397.11 397.11"><defs><style>.cls-1{fill:#ffa500;}.cls-2{fill:#fff;}.cls-3{fill:#02002d;}</style></defs><g id="Layer_2" data-name="Layer 2"><g id="Layer_1-2" data-name="Layer 1"><path class="cls-1" d="M101.31,213H48.46V328.54A198.65,198.65,0,0,1,27.21,98.17H147.54V317.44H101.31Z"/><path class="cls-1" d="M337.18,340.7A198.58,198.58,0,0,1,81.85,359.21h85.51v-26.1h33V56.4H59.93a198.55,198.55,0,0,1,278.24,1H284.54V81.81H269.09v24.41H253.64v24.43H238.19v24.43H222.73V243h15.46v24.41h15.45v24.43h15.45v24.43h13.44V340.7Z"/><path class="cls-1" d="M397.11,198.55a197.53,197.53,0,0,1-28.82,103.07H318.53V277.2H303.08V252.77H287.63V228.35H272.18V203.93H256.73v-9.78h15.45V169.73h15.45V145.31h15.45V120.89h15.45V96.46h50.35A197.62,197.62,0,0,1,397.11,198.55Z"/><path class="cls-2" d="M147.54,98.17V317.44H101.31V213H48.46v54.88A165.5,165.5,0,0,1,67.21,98.17Z"/><path class="cls-2" d="M284.6,57.38h-.06V81.81H269.09v24.41H253.64v24.43H238.19v24.43H222.73V243h15.46v24.41h15.45v24.43h15.45v24.43h13.44V340.7H283a165.8,165.8,0,0,1-123.51,18.51h7.89v-26.1h33V56.4H114.13a165.5,165.5,0,0,1,170.47,1Z"/><path class="cls-2" d="M363.86,198.55a164.6,164.6,0,0,1-36.07,103.07h-9.26V277.2H303.08V252.77H287.63V228.35H272.18V203.93H256.73v-9.78h15.45V169.73h15.45V145.31h15.45V120.89h15.45V96.46h10A164.61,164.61,0,0,1,363.86,198.55Z"/><path class="cls-3" d="M290.23,187.15v5.07h2.54v-5.07h-2.54Z"/><path class="cls-3" d="M300.37,184.62h-7.6v2.53h7.6v-2.53Z"/><path class="cls-3" d="M300.37,187.15v10.14h2.53V187.15h-2.53Z"/><path class="cls-3" d="M300.37,202.35V210h2.53V199.82h-2.53v2.53Z"/><path class="cls-3" d="M297.83,210h-5.06v2.54h7.6V210h-2.54Z"/><path class="cls-3" d="M292.77,207.42v-2.53h-2.54V210h2.54v-2.53Z"/><path class="cls-3" d="M297.83,197.29h-5.06v2.53h7.6v-2.53h-2.54Z"/><path class="cls-3" d="M318.1,184.62h-7.6v2.53h7.6v-2.53Z"/><path class="cls-3" d="M318.1,187.15v10.14h2.53V187.15H318.1Z"/><path class="cls-3" d="M308,187.15v5.07h2.53v-5.07H308Z"/><path class="cls-3" d="M310.5,207.42v-2.53H308V210h2.53v-2.53Z"/><path class="cls-3" d="M315.57,197.29H310.5v2.53h7.6v-2.53h-2.53Z"/><path class="cls-3" d="M315.57,210H310.5v2.54h7.6V210h-2.53Z"/><path class="cls-3" d="M318.1,202.35V210h2.53V199.82H318.1v2.53Z"/><path class="cls-3" d="M333.3,197.29h-5.07v2.53h7.6v-2.53H333.3Z"/><path class="cls-3" d="M335.83,187.15v10.14h2.54V187.15h-2.54Z"/><path class="cls-3" d="M328.23,207.42v-2.53H325.7V210h2.53v-2.53Z"/><path class="cls-3" d="M335.83,184.62h-7.6v2.53h7.6v-2.53Z"/><path class="cls-3" d="M335.83,202.35V210h2.54V199.82h-2.54v2.53Z"/><path class="cls-3" d="M325.7,187.15v5.07h2.53v-5.07H325.7Z"/><path class="cls-3" d="M333.3,210h-5.07v2.54h7.6V210H333.3Z"/><path class="cls-3" d="M354.83,184.62h-11.4v15.2H346v-1.27h2.53v-1.26h5.07v-2.54H348.5V196H346v-8.87H356.1v-2.53Z"/><path class="cls-3" d="M353.57,199.82V210h2.53V197.29h-2.53v2.53Z"/><path class="cls-3" d="M346,207.42v-2.53h-2.54V210H346v-2.53Z"/><path class="cls-3" d="M351,210H346v2.54h7.6V210H351Z"/></g></g></svg>